<svg id="Layer_1" data-name="Layer 1" xmlns="http://www.w3.org/2000/svg" viewBox="0 0 408 334"><defs><style>.cls-1{fill:#a6a8a9;}.cls-2{fill:#e5e6e7;}.cls-3{fill:none;stroke:#cd5c2e;stroke-miterlimit:10;stroke-width:0.5px;}</style></defs><title>Artboard 7ldpi</title><polygon class="cls-1" points="391.85 50.65 391.85 315.06 16.25 315.06 16.25 133.99 33.91 127 298.66 21.96 308.38 21.96 308.38 79.97 382.13 50.65 391.85 50.65"/><path class="cls-2" d="M64.56,289.64H60.41v-17.8h-.06l-4,17.8H52l-3.89-17.8h-.06v17.8H43.92v-21.3h6.49l3.86,16.79h.06l3.79-16.79h6.44Z"/><path class="cls-2" d="M86.67,289.64H82l7.59-21.3h5.14l7.5,21.3H97.38L96,285.25H88.15Zm2.67-8.07h5.43l-2.65-8.42h-.05Z"/><path class="cls-2" d="M126.25,289.64H121.8V272.11h-6.44v-3.77h17.32v3.77h-6.43Z"/><path class="cls-2" d="M165.8,272.11H154.49v4.48h10.38v3.76H154.49v5.52H166.3v3.77H150.14v-21.3H165.8Z"/><path class="cls-2" d="M184.73,268.34H195.5c5.66,0,6.7,4.18,6.7,6a5.08,5.08,0,0,1-3.29,5.07c1.75.77,2.7,1.43,2.7,5.4,0,3.11,0,3.89.95,4.24v.57h-4.93a14.5,14.5,0,0,1-.47-4.31c0-2.9-.18-4-3.47-4h-4.6v8.34h-4.36Zm9.58,9.37c2.32,0,3.44-.8,3.44-2.9,0-1.13-.5-2.79-3.11-2.79h-5.55v5.69Z"/><path class="cls-2" d="M225.05,289.64H220.6v-21.3h4.45Z"/><path class="cls-2" d="M247.05,289.64h-4.69l7.59-21.3h5.13l7.51,21.3h-4.84l-1.36-4.39h-7.86Zm2.66-8.07h5.43l-2.64-8.42h-.06Z"/><path class="cls-2" d="M284.7,285.78h10.58v3.86h-15v-21.3h4.45Z"/><path class="cls-2" d="M328.84,272.11h-11.3v4.48h10.38v3.76H317.54v5.52h11.81v3.77H313.18v-21.3h15.66Z"/><path class="cls-2" d="M351,283.08c0,1.19.62,3.44,4.51,3.44,2.1,0,4.45-.5,4.45-2.76,0-1.66-1.6-2.1-3.86-2.64l-2.28-.53c-3.44-.8-6.76-1.57-6.76-6.26,0-2.37,1.27-6.55,8.18-6.55,6.53,0,8.28,4.27,8.31,6.88h-4.27c-.12-1-.48-3.21-4.36-3.21-1.7,0-3.71.63-3.71,2.55,0,1.67,1.37,2,2.25,2.23l5.19,1.28c2.91.71,5.58,1.89,5.58,5.72,0,6.41-6.53,7-8.4,7-7.76,0-9.1-4.48-9.1-7.12Z"/><polygon class="cls-2" points="277.49 67.24 277.49 150.03 268.12 150.03 268.12 77.31 73.14 150.03 47.71 150.03 268.08 67.24 268.12 67.32 268.12 67.24 277.49 67.24"/><polygon class="cls-2" points="360.95 96.32 360.95 250.73 351.23 250.73 351.23 106.04 286.86 131.56 286.86 121.85 351.23 96.32 360.95 96.32"/><path class="cls-2" d="M47.71,250.73V160H83.65l16,56.62,16-56.62H151.6v90.78H124.87V223l.38-14.12,1.52-16.39h-.26L110,250.73H89.32L72.8,192.48h-.25l1.26,13.37L74.44,220v30.76Z"/><path class="cls-2" d="M259.3,204.84c0,30.89-20.8,48.29-47.65,48.29-28.5,0-47.54-17.65-47.54-48.54,0-28.5,19.29-47,47.54-47C244.05,157.56,259.3,180.88,259.3,204.84Zm-65.43,0c0,11.6,3.53,26.1,17.78,26.1,12.86,0,17.9-11.09,17.9-26.1,0-12.36-5-25.47-18.16-25.1C197.9,179.74,193.87,193.37,193.87,204.84Z"/><path class="cls-2" d="M265.63,250.73,298.16,160h30.26L361,250.73H331.32l-3.53-12H298.16l-3.4,12ZM313,187.32l-9.21,32.53h18.79Z"/><line class="cls-3" x1="327.53" y1="10.51" x2="1.7" y2="139.76"/><line class="cls-3" x1="286.39" y1="88.71" x2="406.4" y2="41"/><line class="cls-3" x1="277.49" y1="67.24" x2="268.12" y2="67.24"/><line class="cls-3" x1="391.84" y1="50.71" x2="381.89" y2="50.71"/><line class="cls-3" x1="360.95" y1="96.32" x2="351.23" y2="96.32"/><line class="cls-3" x1="308.38" y1="0.91" x2="308.38" y2="333.6"/><line class="cls-3" x1="391.84" y1="29.11" x2="391.84" y2="333.6"/><line class="cls-3" x1="16.25" y1="333.6" x2="16.25" y2="116.55"/><line class="cls-3" x1="1.7" y1="315.06" x2="406.4" y2="315.06"/><line class="cls-3" x1="1.7" y1="150.03" x2="406.4" y2="150.03"/><line class="cls-3" x1="1.7" y1="159.95" x2="406.4" y2="159.95"/><line class="cls-3" x1="1.7" y1="268.34" x2="406.4" y2="268.34"/><line class="cls-3" x1="1.7" y1="289.64" x2="406.4" y2="289.64"/><line class="cls-3" x1="1.94" y1="250.73" x2="406.4" y2="250.73"/><line class="cls-3" x1="327.53" y1="44.91" x2="1.7" y2="167.31"/><line class="cls-3" x1="327.53" y1="55.15" x2="1.7" y2="176.67"/><line class="cls-3" x1="407.07" y1="74.16" x2="215.58" y2="150.12"/><line class="cls-3" x1="407.07" y1="83.89" x2="240.09" y2="150.11"/><line class="cls-3" x1="360.95" y1="37.58" x2="360.95" y2="332.8"/><line class="cls-3" x1="351.23" y1="44.91" x2="351.23" y2="333.6"/><line class="cls-3" x1="277.49" y1="63.34" x2="277.49" y2="333.6"/><line class="cls-3" x1="286.39" y1="59.99" x2="286.39" y2="333.6"/><line class="cls-3" x1="268.11" y1="16.88" x2="268.12" y2="333.6"/><line class="cls-3" x1="47.7" y1="102.58" x2="47.71" y2="333.6"/></svg>