<svg id="Layer_1" data-name="Layer 1" xmlns="http://www.w3.org/2000/svg" viewBox="0 0 82 64"><defs><style>.cls-1{fill:#fff;}</style></defs><title>Artboard 6ldpi</title><path class="cls-1" d="M51.92,55.09h0l-.59,1.82h1.17Zm0,0h0l-.59,1.82h1.17Zm-12.49-.24h-1.2v1.22h1.13c.5,0,.74-.17.74-.62C40.1,55.2,40,54.85,39.43,54.85Zm12.49.24h0l-.59,1.82h1.17Zm0,0h0l-.59,1.82h1.17Zm-12.49-.24h-1.2v1.22h1.13c.5,0,.74-.17.74-.62C40.1,55.2,40,54.85,39.43,54.85Zm-22.13.24h0l-.59,1.82h1.17Zm22.13-.24h-1.2v1.22h1.13c.5,0,.74-.17.74-.62C40.1,55.2,40,54.85,39.43,54.85Zm12.49.24h0l-.59,1.82h1.17Zm0,0h0l-.59,1.82h1.17Zm-12.49-.24h-1.2v1.22h1.13c.5,0,.74-.17.74-.62C40.1,55.2,40,54.85,39.43,54.85Zm-22.13.24h0l-.59,1.82h1.17Zm62.6-48L64,13.39V.87h-2.1L4.73,23.54.92,25.05V64.13H82V7.06ZM55.28,10.64v0h2V28.51h-2V12.81L13.2,28.51H7.71Zm-43.93,48h-.9V54.81h0l-.86,3.84H8.64L7.8,54.81h0v3.84h-.9v-4.6h1.4l.84,3.63h0L10,54.05h1.39Zm7.08,0-.29-.95h-1.7l-.32.95h-1l1.64-4.6h1.1l1.63,4.6Zm-1.73-8.4L13.13,37.68h-.06l.28,2.88.13,3v6.64H7.71V30.65h7.76l3.46,12.22,3.45-12.22h7.76v19.6H24.37v-6l.08-3,.33-3.53h-.06L21.16,50.25Zm9.35,4.61H24.67v3.79h-1V54.86H22.32v-.81h3.73Zm7.26,3.79H29.82v-4.6H33.2v.81H30.76v1H33v.82H30.76v1.19h2.55Zm7.83,0H40.08a2.93,2.93,0,0,1-.1-.93c0-.63,0-.87-.76-.87h-1v1.8h-.94v-4.6h2.32a1.29,1.29,0,0,1,1.45,1.3,1.09,1.09,0,0,1-.71,1.09c.38.17.58.31.58,1.17,0,.68,0,.84.21.92Zm-8.3-18.36c0-6.15,4.16-10.15,10.26-10.15,7,0,10.29,5,10.29,10.2,0,6.67-4.49,10.43-10.29,10.43C37,50.77,32.84,47,32.84,40.29ZM46,58.65H45v-4.6h1Zm7.06,0-.29-.95h-1.7l-.32.95h-1l1.64-4.6h1.11l1.62,4.6Zm8.1,0H57.91v-4.6h1v3.77h2.28Zm7.36,0H65v-4.6H68.4v.81H66v1H68.2v.82H66v1.19h2.55Zm-.34-11H61.78L61,50.25H54.76l7-19.6h6.53l4.92,13.74V19L59.34,24.53v-2.1l13.89-5.51h2.1V50.25H68.94Zm6,11.11c-1.67,0-2-1-2-1.54h.92c0,.26.14.75,1,.75.45,0,1-.11,1-.6s-.35-.46-.84-.57l-.49-.11c-.74-.18-1.46-.34-1.46-1.36,0-.51.28-1.41,1.77-1.41s1.78.92,1.79,1.48H75c0-.2-.1-.69-.94-.69-.37,0-.8.14-.8.55s.29.44.48.48l1.13.28c.62.16,1.2.41,1.2,1.24C76,58.65,74.62,58.77,74.21,58.77Zm-22.3-3.68-.59,1.82h1.17l-.57-1.82Zm-12.48-.24h-1.2v1.22h1.13c.5,0,.74-.17.74-.62C40.1,55.2,40,54.85,39.43,54.85Zm-22.14.24-.59,1.82h1.17l-.57-1.82Zm22.14-.24h-1.2v1.22h1.13c.5,0,.74-.17.74-.62C40.1,55.2,40,54.85,39.43,54.85Zm12.49.24h0l-.59,1.82h1.17Zm0,0h0l-.59,1.82h1.17Zm-12.49-.24h-1.2v1.22h1.13c.5,0,.74-.17.74-.62C40.1,55.2,40,54.85,39.43,54.85Zm0,0h-1.2v1.22h1.13c.5,0,.74-.17.74-.62C40.1,55.2,40,54.85,39.43,54.85Zm12.49.24h0l-.59,1.82h1.17Zm0,0h0l-.59,1.82h1.17Zm-12.49-.24h-1.2v1.22h1.13c.5,0,.74-.17.74-.62C40.1,55.2,40,54.85,39.43,54.85Zm12.49.24h0l-.59,1.82h1.17Zm0,0h0l-.59,1.82h1.17Z"/><path class="cls-1" d="M47,40.34C47,43.58,45.88,46,43.1,46c-3.08,0-3.84-3.13-3.84-5.64s.88-5.42,3.79-5.42S47,37.68,47,40.34Z"/><polygon class="cls-1" points="67.06 43.58 63 43.58 64.99 36.56 67.06 43.58"/></svg>